<svg width="138" height="50" viewBox="0 0 138 50" fill="none" xmlns="http://www.w3.org/2000/svg">
<g clip-path="url(#clip0_32_179)">
<path d="M97.685 42.0601H98.975V48.12C98.975 48.29 98.935 48.4401 98.855 48.5801C98.775 48.7201 98.665 48.84 98.525 48.92C98.385 49 98.225 49.0401 98.055 49.0401H96.035C95.865 49.0401 95.715 49 95.575 48.92C95.435 48.84 95.325 48.72 95.245 48.59C95.155 48.73 95.045 48.84 94.905 48.92C94.765 49 94.605 49.0401 94.435 49.0401H91.485V42.05H92.785V47.7401H94.595V42.05H95.895V47.7401H97.705V42.05L97.685 42.0601Z" fill="#969596"/>
<path d="M106.695 49.0501H101.405C101.155 49.0501 100.935 48.9601 100.755 48.7701C100.575 48.5901 100.475 48.3701 100.475 48.1201V42.0601H105.765C106.015 42.0601 106.235 42.1501 106.425 42.3301C106.605 42.5101 106.695 42.7301 106.695 42.9901V43.8701H105.395V43.3501H101.775V44.9101H104.365V46.2001H101.775V47.7501H105.395V47.2401H106.695V49.0501Z" fill="#969596"/>
<path d="M114.405 48.1201C114.405 48.3701 114.315 48.5901 114.135 48.7701C113.955 48.9501 113.735 49.0501 113.475 49.0501H108.185V42.0601H113.475C113.725 42.0601 113.945 42.1501 114.135 42.3301C114.315 42.5101 114.405 42.7301 114.405 42.9901V44.7501C114.405 44.9201 114.365 45.0701 114.285 45.2101C114.205 45.3501 114.095 45.4601 113.955 45.5401C114.045 45.5901 114.125 45.6601 114.195 45.7501C114.265 45.8401 114.315 45.9301 114.355 46.0301C114.395 46.1301 114.415 46.2401 114.415 46.3501V48.1101L114.405 48.1201ZM109.485 43.3501V44.9101H113.105V43.3501H109.485ZM109.485 46.2001V47.7501H113.105V46.2001H109.485Z" fill="#969596"/>
<path d="M122.115 49.0501H116.825C116.575 49.0501 116.355 48.9601 116.175 48.7701C115.995 48.5901 115.895 48.3701 115.895 48.1201V42.0601H117.195V47.7501H122.115V49.0501Z" fill="#969596"/>
<path d="M129.815 49.0401H128.515V46.19H124.895V49.0401H123.605V42.9901C123.605 42.8601 123.635 42.74 123.685 42.62C123.735 42.5 123.805 42.4 123.885 42.32C123.965 42.24 124.065 42.17 124.175 42.12C124.285 42.07 124.405 42.05 124.535 42.05H128.885C129.135 42.05 129.355 42.14 129.535 42.32C129.715 42.5 129.815 42.72 129.815 42.98V49.03V49.0401ZM128.515 44.9001V43.35H124.895V44.9001H128.515Z" fill="#969596"/>
<path d="M137.525 48.1201C137.525 48.3701 137.435 48.5901 137.255 48.7701C137.075 48.9501 136.855 49.0501 136.595 49.0501H131.305V42.0601H136.595C136.845 42.0601 137.065 42.1501 137.255 42.3301C137.435 42.5101 137.525 42.7301 137.525 42.9901V44.7501C137.525 44.9201 137.485 45.0701 137.405 45.2101C137.325 45.3501 137.215 45.4601 137.075 45.5401C137.165 45.5901 137.245 45.6601 137.315 45.7501C137.385 45.8401 137.435 45.9301 137.475 46.0301C137.515 46.1301 137.535 46.2401 137.535 46.3501V48.1101L137.525 48.1201ZM132.605 43.3501V44.9101H136.225V43.3501H132.605ZM132.605 46.2001V47.7501H136.225V46.2001H132.605Z" fill="#969596"/>
<path d="M33.415 33.19L33.375 33.55L33.335 33.84L33.225 34.17L33.115 34.46L32.975 34.75L32.795 35L32.615 35.25L32.365 35.5L32.295 35.57L32.115 35.71L31.895 35.89L31.565 36.03L31.315 36.14L30.955 36.28L30.735 36.32C30.515 36.37 30.315 36.39 30.115 36.39C29.875 36.39 29.645 36.37 29.425 36.32L29.355 36.28C29.135 36.23 28.945 36.17 28.775 36.1L28.595 36.03L28.195 35.78L28.015 35.64L27.685 35.35L27.615 35.28L6.995 12.04V33.12C6.995 34.01 6.665 34.78 6.015 35.43C5.365 36.08 4.585 36.41 3.665 36.41C2.745 36.41 2.005 36.08 1.355 35.43C0.705 34.78 0.375 34.01 0.375 33.12V3.36C0.375 1.84 1.085 0.81 2.505 0.25C2.965 0.08 3.395 0 3.805 0C4.675 0 5.455 0.39 6.155 1.16L26.795 24.41V3.36C26.795 2.44 27.125 1.66 27.775 1.01C28.425 0.38 29.205 0.07 30.125 0.07C31.045 0.07 31.815 0.38 32.435 1.01C33.085 1.66 33.415 2.44 33.415 3.36V33.19Z" fill="#6A5CA4"/>
<path d="M61.585 33.84C59.075 35.55 56.295 36.41 53.235 36.41C49.135 36.41 45.645 34.95 42.755 32.04C39.835 29.15 38.385 25.65 38.385 21.56C38.385 17.47 39.845 13.96 42.755 11.04C45.645 8.12004 49.145 6.67004 53.235 6.67004C57.325 6.67004 60.835 8.13004 63.755 11.04C66.675 13.95 68.125 17.46 68.125 21.56V33.13C68.125 34.02 67.795 34.79 67.145 35.44C66.495 36.09 65.715 36.42 64.795 36.42C64.025 36.42 63.335 36.18 62.735 35.7C62.135 35.22 61.745 34.6 61.575 33.86L61.585 33.84ZM44.995 21.55C44.995 23.82 45.805 25.76 47.415 27.37C49.025 28.99 50.965 29.79 53.235 29.79C55.505 29.79 57.475 28.98 59.095 27.37C60.715 25.76 61.515 23.82 61.515 21.55C61.515 19.28 60.705 17.31 59.095 15.69C57.485 14.07 55.525 13.27 53.235 13.27C50.945 13.27 49.025 14.08 47.415 15.69C45.795 17.3 44.995 19.26 44.995 21.55Z" fill="#6A5CA4"/>
<path d="M77.895 11.0299C80.815 8.13994 84.315 6.68994 88.415 6.68994C92.515 6.68994 96.045 8.13994 98.935 11.0299C101.825 13.9199 103.305 17.4499 103.305 21.5499C103.305 25.6499 101.845 29.1499 98.935 32.0699C96.045 34.9599 92.535 36.4099 88.415 36.4099C85.405 36.4099 82.655 35.5799 80.175 33.9199V46.3599C80.175 47.2499 79.845 48.0199 79.195 48.6699C78.545 49.3199 77.765 49.6499 76.845 49.6499C75.925 49.6499 75.185 49.3199 74.535 48.6699C73.885 48.0199 73.555 47.2499 73.555 46.3599V21.4099C73.605 17.3599 75.045 13.8999 77.895 11.0299ZM96.695 21.5499C96.695 19.2599 95.885 17.3099 94.275 15.6899C92.665 14.0999 90.705 13.2999 88.415 13.2999C86.125 13.2999 84.205 14.0999 82.595 15.6899C80.975 17.2999 80.175 19.2599 80.175 21.5499C80.175 23.8399 80.985 25.7899 82.595 27.4099C84.205 29.0299 86.145 29.8299 88.415 29.8299C90.685 29.8299 92.655 29.0199 94.275 27.4099C95.895 25.7999 96.695 23.8399 96.695 21.5499Z" fill="#40BDE1"/>
<path d="M122.735 36.41C118.635 36.41 115.145 34.95 112.255 32.04C109.335 29.15 107.885 25.65 107.885 21.56C107.885 17.47 109.345 13.96 112.255 11.04C115.145 8.12004 118.645 6.67004 122.735 6.67004C126.825 6.67004 130.335 8.13004 133.255 11.04C136.175 13.95 137.625 17.46 137.625 21.56C137.625 25.66 136.165 29.15 133.255 32.04C130.335 34.96 126.835 36.41 122.735 36.41ZM122.735 13.27C120.465 13.27 118.525 14.08 116.915 15.69C115.295 17.3 114.495 19.26 114.495 21.55C114.495 23.84 115.305 25.76 116.915 27.37C118.525 28.99 120.465 29.79 122.735 29.79C125.005 29.79 126.975 28.98 128.595 27.37C130.215 25.76 131.015 23.82 131.015 21.55C131.015 19.28 130.205 17.31 128.595 15.69C126.985 14.07 125.025 13.27 122.735 13.27Z" fill="#40BDE1"/>
</g>
<defs>
<clipPath id="clip0_32_179">
<rect width="137.25" height="49.64" fill="white" transform="translate(0.375)"/>
</clipPath>
</defs>
</svg>
