<svg width="32" height="32" viewBox="0 0 32 32" fill="none" xmlns="http://www.w3.org/2000/svg">
<path d="M19.7506 11.0205C20.9284 9.67505 22.3402 9 23.9939 9C25.6477 9 27.0716 9.67505 28.2373 11.0205C29.403 12.3659 30 14.0093 30 15.9181C30 17.8268 29.4111 19.4562 28.2373 20.8156C27.0716 22.1611 25.6558 22.8361 23.9939 22.8361C22.7798 22.8361 21.6706 22.4497 20.6703 21.6769V27.4683C20.6703 27.8827 20.5371 28.2412 20.275 28.5438C20.0128 28.8464 19.6982 29 19.3271 29C18.956 29 18.6575 28.8464 18.3953 28.5438C18.1331 28.2412 18 27.8827 18 27.4683V15.8529C18.0202 13.9674 18.601 12.3566 19.7506 11.0205ZM27.3338 15.9181C27.3338 14.852 27.0071 13.9441 26.3576 13.1899C25.7082 12.4497 24.9176 12.0773 23.9939 12.0773C23.0703 12.0773 22.2958 12.4497 21.6464 13.1899C20.9929 13.9395 20.6703 14.852 20.6703 15.9181C20.6703 16.9842 20.997 17.892 21.6464 18.6462C22.2958 19.4004 23.0783 19.7728 23.9939 19.7728C24.9096 19.7728 25.7042 19.3957 26.3576 18.6462C27.0111 17.8966 27.3338 16.9842 27.3338 15.9181Z" fill="#40BDE1"/>
<path d="M17 20.4966L16.9818 20.6647L16.9637 20.8001L16.9137 20.9541L16.8638 21.0895L16.8002 21.2249L16.7185 21.3417L16.6368 21.4584L16.5233 21.5751L16.4915 21.6078L16.4098 21.6732L16.3099 21.7572L16.1601 21.8226L16.0466 21.8739L15.8832 21.9393L15.7833 21.958C15.6834 21.9813 15.5926 21.9907 15.5018 21.9907C15.3929 21.9907 15.2884 21.9813 15.1886 21.958L15.1568 21.9393C15.0569 21.916 14.9706 21.8879 14.8935 21.8553L14.8117 21.8226L14.6301 21.7058L14.5484 21.6405L14.3986 21.5051L14.3668 21.4724L5.00545 10.6215V20.4639C5.00545 20.8794 4.85563 21.2389 4.56053 21.5424C4.26544 21.8459 3.91132 22 3.49364 22C3.07597 22 2.74001 21.8459 2.44492 21.5424C2.14982 21.2389 2 20.8794 2 20.4639V6.5688C2 5.8591 2.32234 5.37819 2.96701 5.11673C3.17585 5.03735 3.37107 5 3.5572 5C3.95218 5 4.3063 5.18209 4.62409 5.54161L13.9946 16.3971V6.5688C13.9946 6.13925 14.1444 5.77506 14.4395 5.47157C14.7346 5.17742 15.0887 5.03268 15.5064 5.03268C15.924 5.03268 16.2736 5.17742 16.5551 5.47157C16.8502 5.77506 17 6.13925 17 6.5688V20.4966Z" fill="#6A5CA4"/>
</svg>
